<?xml version="1.0" standalone="no"?>
<!DOCTYPE svg PUBLIC "-//W3C//DTD SVG 20010904//EN"
 "http://www.w3.org/TR/2001/REC-SVG-20010904/DTD/svg10.dtd">
<svg version="1.0" xmlns="http://www.w3.org/2000/svg"
 width="283.000000pt" height="283.000000pt" viewBox="0 0 283.000000 283.000000"
 preserveAspectRatio="xMidYMid meet">
<metadata>
Created by potrace 1.11, written by Peter Selinger 2001-2013
</metadata>
<g transform="translate(0.000000,283.000000) scale(0.100000,-0.100000)"
fill="#000000" stroke="none">
<path d="M0 1415 l0 -1415 1415 0 1415 0 0 1250 0 1250 -33 33 c-25 24 -33 39
-31 60 3 24 0 27 -19 23 -12 -3 -16 -3 -9 0 18 8 15 24 -5 24 -10 0 -23 11
-30 25 -14 31 0 33 16 3 10 -21 11 -20 6 12 -4 25 -2 31 5 20 9 -13 11 -13 20
0 6 10 10 11 10 3 0 -22 14 -14 38 22 29 46 28 65 -3 65 -27 0 -32 9 -13 28 9
9 8 12 -5 12 -9 0 -17 -6 -17 -12 0 -10 -2 -10 -9 0 -5 9 -32 12 -89 11 -76
-2 -103 -12 -67 -25 8 -4 12 -10 9 -15 -3 -5 -9 -7 -12 -5 -4 2 -12 -7 -19
-20 -6 -13 -7 -21 -1 -18 5 3 12 -3 15 -15 3 -12 13 -21 22 -21 10 0 16 -8 16
-24 0 -15 -5 -22 -12 -19 -7 3 -10 9 -7 14 3 5 -3 12 -13 16 -10 4 -23 14 -30
22 -8 11 -12 12 -13 4 0 -7 16 -27 35 -44 19 -18 37 -40 41 -51 4 -15 9 -17
19 -8 11 9 21 6 44 -11 17 -13 31 -28 31 -33 0 -6 4 -4 10 4 5 8 12 11 17 7 4
-4 2 -17 -5 -27 -10 -17 -10 -20 4 -20 11 0 14 -5 10 -16 -3 -9 -6 -22 -6 -30
0 -8 -6 -13 -12 -12 -7 2 -12 -5 -10 -14 2 -10 -2 -18 -8 -18 -18 0 -11 -17
10 -23 35 -9 51 -97 18 -97 -7 0 -7 4 0 13 5 7 6 21 1 32 -7 19 -8 19 -8 -2
-1 -22 -2 -22 -19 -5 -13 12 -14 18 -5 20 7 2 13 8 13 13 0 6 -7 6 -19 -1 -11
-5 -29 -10 -41 -10 -14 0 -20 -5 -16 -12 3 -7 9 -21 12 -30 4 -10 12 -18 19
-18 7 0 24 -14 39 -32 14 -17 26 -28 26 -23 0 5 -8 17 -17 28 -13 15 -14 19
-4 15 28 -8 37 -36 18 -55 -30 -30 -65 -7 -89 57 -11 30 -20 63 -20 73 1 9 -3
17 -9 17 -5 0 -9 -8 -10 -17 0 -16 -1 -15 -8 1 -7 19 -8 19 -13 -2 -4 -15 -2
-22 8 -22 8 0 14 -5 14 -11 0 -6 -8 -8 -17 -5 -24 7 -35 -2 -55 -44 l-16 -35
-7 53 c-7 50 -25 73 -25 33 0 -22 -15 -34 -43 -36 -25 -2 -29 9 -11 31 14 17
15 17 10 2 -10 -34 4 -18 24 26 21 47 27 106 11 106 -25 0 -43 -35 -38 -71 4
-32 2 -38 -16 -43 -21 -5 -47 9 -47 25 0 4 9 11 20 14 30 9 24 23 -17 42 -21
9 -41 19 -45 21 -4 2 -1 -9 7 -25 13 -25 13 -29 0 -39 -18 -13 -10 -44 11 -44
8 0 14 -10 14 -25 0 -14 -4 -25 -10 -25 -5 0 -7 -13 -3 -30 5 -28 3 -30 -23
-30 -16 0 -24 -4 -19 -8 14 -10 35 -59 35 -83 0 -11 -7 -22 -16 -26 -13 -5
-12 -9 7 -29 12 -13 28 -24 35 -24 13 0 64 -39 51 -40 -4 0 -22 7 -38 16 -17
8 -33 13 -36 10 -3 -3 4 -9 16 -14 20 -7 21 -9 7 -21 -21 -18 -20 -28 4 -36
25 -8 27 -37 3 -33 -31 5 -41 -9 -33 -46 7 -31 5 -35 -19 -39 -14 -3 -30 -1
-36 5 -7 8 -6 9 3 4 6 -4 12 -2 12 4 0 7 -6 10 -13 8 -6 -3 -12 -10 -12 -17 0
-6 -6 -15 -12 -19 -9 -6 -7 -12 7 -25 16 -13 20 -14 20 -3 0 8 -5 17 -10 19
-6 3 -5 4 2 3 21 -4 49 -51 54 -90 5 -45 12 -58 25 -51 5 3 6 -2 2 -11 -5 -13
-3 -15 7 -9 9 5 11 4 6 -3 -4 -6 -2 -21 4 -32 19 -35 3 -22 -50 43 -36 41 -60
62 -76 63 -20 1 -22 -2 -13 -19 8 -14 8 -21 0 -26 -11 -7 -3 -50 18 -90 14
-24 23 -101 13 -101 -8 0 -38 65 -48 104 -13 53 -20 33 -11 -31 7 -51 6 -82
-7 -139 -9 -41 -16 -91 -17 -112 l-1 -37 -9 30 c-8 28 4 146 17 167 3 5 2 37
-2 71 -6 49 -9 57 -15 37 -6 -20 -7 -17 -6 17 0 22 -5 54 -11 70 -6 15 -13 39
-16 53 -3 14 -12 34 -21 45 -16 20 -16 20 -11 -4 3 -14 0 -46 -5 -72 -8 -35
-7 -54 2 -71 9 -18 9 -21 -1 -11 -7 6 -18 10 -24 8 -10 -4 -78 124 -80 150 -1
6 -8 10 -16 10 -22 0 -19 -11 33 -117 26 -54 50 -112 53 -130 l5 -33 -14 30
c-8 17 -33 69 -55 118 -28 58 -49 90 -64 97 -13 5 -34 18 -47 27 -24 17 -24
17 -12 -7 10 -20 8 -19 -11 5 -12 17 -42 50 -66 75 -24 25 -50 57 -58 73 -8
15 -19 27 -24 27 -5 0 -24 14 -42 30 -18 17 -35 30 -39 30 -4 0 -10 7 -13 16
-4 11 1 10 21 -6 18 -14 30 -17 37 -10 14 14 29 13 20 -2 -5 -10 -4 -10 6 -1
11 10 4 21 -33 58 -26 25 -47 54 -47 63 0 10 36 -20 93 -78 51 -52 89 -97 85
-100 -4 -3 3 -12 15 -19 20 -13 21 -13 8 2 -7 10 -10 17 -6 17 5 0 1 8 -8 18
-10 10 -14 22 -10 27 5 4 3 5 -4 2 -10 -6 -16 4 -41 68 -2 6 15 -10 38 -35 50
-55 40 -31 -13 31 -21 24 -35 35 -31 25 5 -14 4 -17 -4 -12 -7 4 -12 14 -12
22 0 8 -4 14 -8 14 -4 0 -16 14 -26 31 -28 47 -93 90 -125 82 -14 -3 -30 -12
-34 -20 -4 -7 -15 -13 -22 -13 -8 0 -14 -5 -12 -12 1 -7 -3 -12 -10 -13 -6 0
-14 -3 -18 -6 -3 -4 -14 -5 -24 -2 -17 4 -18 8 -4 41 16 41 61 71 75 49 6 -9
8 -8 8 4 0 24 -10 29 -35 17 -22 -10 -28 -7 -79 37 -6 6 -22 12 -36 13 -33 5
-39 12 -11 12 18 0 22 4 16 18 -16 39 -11 47 30 47 22 0 41 5 43 10 4 14 -32
23 -98 25 -49 1 -52 3 -27 12 15 5 25 14 21 19 -8 14 41 29 95 29 63 0 112 10
105 21 -3 5 1 12 10 15 8 3 12 12 9 20 -8 20 -23 17 -17 -3 4 -13 3 -14 -3 -5
-5 7 -18 10 -29 7 -13 -4 -12 -2 4 6 12 7 22 16 22 20 0 4 -13 0 -29 -9 -22
-12 -27 -20 -19 -29 7 -9 7 -13 -1 -13 -6 0 -11 3 -12 8 -5 46 -4 72 4 72 5 0
7 -7 3 -15 -7 -20 1 -19 30 4 19 15 21 20 9 25 -24 9 -47 -4 -100 -59 -44 -46
-55 -52 -85 -49 -35 3 -35 3 -5 -5 27 -8 24 -9 -22 -10 -48 -1 -53 1 -54 22 0
22 0 22 -9 1 -9 -23 -66 -38 -74 -20 -3 8 -7 7 -13 -1 -11 -15 -77 -28 -68
-13 3 5 1 10 -4 10 -6 0 -11 -9 -11 -20 0 -19 4 -20 52 -15 29 4 59 8 65 10
21 7 16 -1 -47 -67 -38 -40 -62 -75 -66 -95 -3 -18 -15 -42 -25 -54 -22 -25
-35 -69 -45 -154 -6 -48 -9 -55 -15 -35 l-7 25 -1 -27 c-1 -20 -6 -28 -18 -27
-11 0 -13 3 -6 6 7 2 13 12 13 20 0 13 -2 13 -17 2 -15 -12 -16 -12 -11 3 5
11 0 18 -15 22 -12 3 -23 1 -25 -4 -7 -21 -22 -8 -42 36 -17 35 -25 44 -40 39
-14 -4 -20 1 -29 27 -16 52 -17 91 -3 95 6 3 16 -6 21 -19 7 -17 10 -18 10 -5
1 21 17 22 25 1 8 -22 26 -8 26 21 0 17 -7 25 -22 28 -23 4 -23 4 1 6 23 1 24
3 16 54 -4 28 -7 70 -7 91 1 22 -3 45 -9 53 -11 12 -9 28 6 66 6 15 4 18 -15
15 -29 -4 -36 14 -15 36 19 18 12 38 -10 29 -9 -3 -15 1 -15 11 0 9 4 16 8 16
12 0 47 79 38 87 -3 4 -12 1 -18 -5 -18 -18 -28 -15 -28 8 0 19 -5 21 -62 18
-62 -3 -63 -3 -66 -34 -2 -20 4 -36 18 -49 24 -21 26 -45 5 -45 -19 0 -19 -29
0 -56 18 -26 10 -35 -20 -24 -26 10 -72 -10 -67 -30 2 -7 -2 -16 -8 -20 -8 -5
-6 -9 5 -13 9 -4 18 -1 21 8 4 8 10 15 16 15 5 0 7 -4 4 -9 -7 -11 18 -33 27
-24 4 3 7 1 7 -5 0 -16 -17 -24 -25 -12 -3 5 -19 10 -35 10 -17 0 -34 7 -40
18 -11 16 -11 16 -6 -1 3 -10 6 -21 6 -23 0 -2 16 -4 35 -4 19 0 35 -4 35 -10
0 -34 -99 6 -100 40 0 23 -21 40 -44 39 -20 -1 -20 -2 -2 -6 18 -5 18 -6 -5
-20 -21 -12 -21 -13 -3 -8 17 4 23 0 26 -19 3 -14 1 -27 -3 -28 -5 -2 7 -15
26 -31 20 -16 32 -21 29 -12 -5 11 -2 13 9 9 20 -7 10 -34 -13 -34 -10 0 -24
10 -33 23 -14 21 -15 21 -34 5 -24 -22 -56 -23 -73 -3 -8 9 -9 15 -2 15 6 0
14 -4 17 -10 3 -5 11 -10 17 -10 6 0 5 7 -3 17 -13 15 -12 16 9 11 13 -4 20
-2 16 4 -3 5 -17 7 -30 4 -33 -9 -30 1 9 24 25 16 28 20 12 20 -21 1 -55 22
-55 35 0 4 9 20 21 36 11 16 17 33 14 39 -3 5 1 10 10 10 15 0 37 38 29 52 -7
11 34 20 79 17 32 -2 41 1 39 12 -2 10 2 9 11 -3 8 -10 17 -15 20 -11 4 3 7
-2 7 -12 0 -10 3 -16 6 -12 9 9 -19 77 -32 77 -6 0 -23 9 -37 20 -32 25 -84
27 -90 3 -4 -17 -5 -17 -6 0 -1 14 -11 17 -56 17 -49 0 -55 -2 -61 -24 -9 -36
-30 -39 -56 -8 -20 23 -32 28 -87 30 -44 2 -61 0 -56 -8 3 -6 16 -10 28 -9 30
3 87 -22 87 -39 0 -7 5 -10 11 -6 12 7 29 -12 29 -32 0 -6 -13 -14 -30 -17
-33 -7 -42 -37 -12 -37 25 0 41 -18 35 -40 -7 -27 -41 -32 -63 -10 -19 19 -19
19 -25 -1 -4 -11 0 -25 9 -35 20 -19 20 -33 1 -40 -11 -5 -12 -11 -5 -24 8
-15 6 -21 -7 -29 -10 -6 -13 -11 -7 -11 5 0 14 4 20 10 11 11 74 -8 74 -22 0
-5 -13 -11 -30 -14 -37 -8 -38 -19 -3 -38 l28 -14 -27 -13 c-22 -9 -30 -9 -43
1 -8 7 -15 8 -15 3 0 -16 29 -70 45 -83 19 -16 19 -40 1 -40 -8 0 -21 7 -30
15 -31 31 -36 10 -5 -23 11 -12 17 -27 13 -34 -4 -7 -3 -8 4 -4 7 4 12 1 12
-9 0 -13 -6 -16 -24 -11 -18 4 -28 1 -35 -11 -5 -10 -13 -14 -17 -10 -5 5 -4
11 2 15 16 11 26 44 12 40 -22 -8 -31 -56 -14 -74 9 -8 16 -25 16 -36 0 -13 5
-18 14 -15 8 3 17 -1 20 -10 4 -8 13 -13 21 -9 8 3 15 1 15 -4 0 -13 -37 -13
-45 0 -3 5 -12 7 -19 4 -9 -3 -16 5 -20 22 -6 21 -10 24 -16 14 -16 -26 -22
34 -7 76 11 33 11 41 1 41 -7 0 -11 -4 -9 -8 3 -3 -3 -13 -12 -20 -15 -12 -16
-12 -9 6 25 62 29 112 7 76 -5 -7 -14 -10 -20 -7 -7 5 0 16 19 33 16 13 30 30
29 36 0 8 -2 8 -6 0 -8 -20 -23 -15 -23 7 0 11 -4 20 -10 20 -5 0 -6 -7 -3
-17 4 -11 3 -14 -6 -9 -7 5 -10 18 -7 32 5 17 1 26 -14 34 -23 12 -27 35 -5
26 9 -3 15 0 15 10 0 11 6 14 16 10 12 -5 14 -1 8 17 -4 12 -7 32 -6 45 1 13
-2 20 -8 17 -6 -4 -8 -11 -5 -16 10 -15 -24 -22 -40 -9 -9 7 -13 15 -10 18 2
3 12 -1 22 -9 15 -12 16 -12 10 3 -3 9 1 22 9 28 16 14 19 46 4 55 -5 3 -10 1
-10 -5 0 -12 -24 -40 -35 -40 -10 0 -35 28 -35 39 0 6 5 11 10 11 6 0 10 7 10
16 0 14 2 14 15 0 8 -8 15 -21 15 -28 1 -7 6 -3 13 10 10 18 15 20 25 10 11
-11 12 -10 7 5 -8 19 -21 22 -30 7 -9 -15 -25 -2 -19 14 3 8 14 16 25 19 11 3
19 14 19 26 0 11 7 24 15 28 9 5 11 13 6 22 -10 16 -34 5 -28 -12 4 -14 -42
-36 -60 -29 -14 5 -18 42 -5 42 5 0 15 11 22 25 7 13 20 26 29 28 9 3 -26 5
-76 6 l-93 1 0 -1415z m467 1389 c-3 -3 -12 -4 -19 -1 -8 3 -5 6 6 6 11 1 17
-2 13 -5z m2266 -21 c-18 -7 -16 -21 5 -26 15 -4 15 -5 0 -6 -9 0 -20 4 -23 9
-8 13 3 30 18 29 9 0 9 -2 0 -6z m-2193 -7 c0 -3 -4 -8 -10 -11 -5 -3 -10 -1
-10 4 0 6 5 11 10 11 6 0 10 -2 10 -4z m-1 -70 c-2 -2 -17 -6 -34 -10 -22 -5
-26 -4 -15 4 14 9 59 15 49 6z m-46 -43 c-7 -2 -19 -2 -25 0 -7 3 -2 5 12 5
14 0 19 -2 13 -5z m-128 -94 c11 -17 -1 -21 -15 -4 -8 9 -8 15 -2 15 6 0 14
-5 17 -11z m1215 -9 c0 -5 -5 -10 -11 -10 -5 0 -7 5 -4 10 3 6 8 10 11 10 2 0
4 -4 4 -10z m-1235 -10 c3 -5 1 -10 -4 -10 -6 0 -11 5 -11 10 0 6 2 10 4 10 3
0 8 -4 11 -10z m2446 -87 c-12 -20 -14 -14 -5 12 4 9 9 14 11 11 3 -2 0 -13
-6 -23z m-2162 -47 c13 -16 -2 -32 -19 -21 -5 3 -10 -4 -11 -17 -1 -23 -1 -23
-9 2 -4 14 -8 31 -9 38 -1 17 34 15 48 -2z m-115 -87 c14 -11 26 -26 26 -32 0
-7 14 -18 31 -26 21 -9 27 -17 20 -24 -7 -7 -16 -6 -29 6 -10 9 -21 14 -25 11
-19 -20 -67 31 -67 71 0 20 13 19 44 -6z m942 -17 c6 -4 17 -18 23 -31 11 -19
10 -22 0 -19 -7 2 -17 13 -23 24 -6 10 -15 22 -21 26 -7 5 -7 8 0 8 6 0 15 -4
21 -8z m1044 -3 c0 -5 -5 -7 -10 -4 -6 4 -13 -7 -16 -24 -4 -20 -11 -28 -20
-24 -21 8 -17 30 8 47 26 19 38 20 38 5z m100 -44 c0 -30 -4 -55 -10 -55 -5 0
-10 -11 -10 -25 0 -20 -5 -25 -25 -25 -36 0 -41 23 -11 55 14 15 26 34 26 41
0 8 5 14 10 14 6 0 8 11 4 25 -4 15 -2 25 5 25 7 0 11 -21 11 -55z m-116 -31
c9 -3 16 -10 16 -16 0 -5 -5 -6 -11 -2 -6 3 -15 0 -20 -7 -6 -10 -9 -8 -9 9 0
24 1 25 24 16z m166 -34 c5 0 11 -11 14 -25 4 -14 11 -25 16 -25 16 0 11 -27
-6 -34 -13 -5 -15 -2 -11 14 3 11 1 23 -4 26 -5 3 -9 -5 -9 -17 0 -18 -3 -20
-12 -11 -10 10 -10 17 0 33 8 12 11 24 8 27 -3 3 -6 0 -6 -6 0 -7 -4 -12 -8
-12 -4 0 -8 17 -9 38 -1 33 0 35 10 15 5 -13 13 -23 17 -23z m-1187 -39 c-4
-24 22 -75 35 -67 8 4 21 -11 82 -94 22 -30 40 -62 40 -71 0 -21 -24 -41 -36
-31 -5 4 -6 3 -2 -2 8 -9 -8 -36 -22 -36 -7 0 -60 92 -60 104 0 10 36 -26 47
-48 6 -10 13 -15 16 -10 3 5 -10 26 -29 46 -19 21 -34 35 -34 31 0 -4 -7 3
-16 15 -9 13 -16 40 -16 60 0 20 -9 49 -19 64 -15 21 -17 32 -9 52 5 14 7 26
4 26 -3 0 -2 5 2 12 10 16 23 -20 17 -51z m-1173 20 c0 -5 3 -18 6 -28 5 -16
4 -16 -10 1 -18 23 -20 36 -6 36 6 0 10 -4 10 -9z m1210 -1 c0 -5 -2 -10 -4
-10 -3 0 -8 5 -11 10 -3 6 -1 10 4 10 6 0 11 -4 11 -10z m-80 -15 c-7 -9 -15
-13 -17 -11 -7 7 7 26 19 26 6 0 6 -6 -2 -15z m-543 -17 c-3 -8 -6 -5 -6 6 -1
11 2 17 5 13 3 -3 4 -12 1 -19z m1734 -171 c-7 -7 -15 -6 -25 2 -14 12 -13 17
4 52 11 21 21 51 22 66 1 15 4 -3 5 -41 2 -38 -1 -74 -6 -79z m-1635 95 c-18
-16 -19 -16 -12 1 3 10 6 24 6 30 0 8 4 7 12 -1 9 -9 8 -16 -6 -30z m-705 15
c19 -14 35 -87 19 -87 -5 0 -10 17 -11 38 0 30 -2 33 -9 17 -8 -19 -9 -19 -9
3 -1 25 -21 31 -21 5 0 -9 -3 -14 -6 -10 -7 7 5 47 14 47 4 0 14 -6 23 -13z
m786 -33 c-3 -3 -12 -4 -19 -1 -8 3 -5 6 6 6 11 1 17 -2 13 -5z m-789 -84 l0
-25 -8 25 c-4 14 -8 34 -8 45 l-1 20 9 -20 c5 -11 8 -31 8 -45z m2208 36 c20
-20 18 -26 -9 -26 -13 0 -32 9 -42 20 -18 20 -17 20 9 20 15 0 34 -6 42 -14z
m-1029 -77 c15 -17 39 -36 53 -44 40 -21 74 -54 77 -75 2 -11 1 -20 -2 -20 -7
0 -44 31 -72 59 -13 13 -25 22 -28 19 -3 -2 10 -19 28 -38 21 -22 25 -29 11
-22 -21 11 -94 95 -94 108 0 4 -7 16 -17 26 -14 16 -14 18 0 18 8 0 28 -14 44
-31z m1257 -64 c14 -10 26 -21 26 -26 0 -15 -47 -21 -70 -9 -20 11 -21 10 -11
-9 13 -23 14 -34 3 -27 -4 2 -16 -2 -27 -10 -17 -13 -18 -16 -5 -24 9 -6 10
-10 3 -10 -6 0 -14 4 -17 9 -9 14 5 41 21 41 9 0 12 7 9 18 -2 9 -7 42 -11 72
l-6 55 30 -32 c16 -17 41 -39 55 -48z m-286 23 c13 -15 29 -25 34 -21 7 4 8 1
4 -6 -5 -7 0 -18 10 -26 29 -21 10 -28 -23 -8 -26 14 -38 30 -72 97 -8 17 23
-7 47 -36z m-1098 -88 c0 -11 -7 -20 -15 -20 -8 0 -15 9 -15 20 0 11 7 20 15
20 8 0 15 -9 15 -20z m160 16 c0 -2 -7 -7 -16 -10 -8 -3 -12 -2 -9 4 6 10 25
14 25 6z m30 -38 c0 -6 7 -8 15 -4 20 7 19 -8 -1 -25 -11 -9 -20 -10 -32 -2
-10 5 -15 14 -14 18 2 4 -2 11 -8 15 -7 4 -1 8 14 8 14 0 26 -5 26 -10z m-635
-8 c-3 -5 -14 -10 -23 -9 -14 0 -13 2 3 9 27 11 27 11 20 0z m1788 -3 c33 -36
49 -57 44 -57 -8 0 -67 57 -67 65 0 9 11 5 23 -8z m-1543 -17 c-13 -8 -12 -11
5 -24 14 -10 24 -11 32 -4 16 13 43 -13 43 -41 0 -11 5 -23 11 -27 7 -4 9 0 5
14 -4 12 -2 22 7 25 10 4 12 -3 9 -24 -3 -18 0 -29 8 -29 7 0 10 6 8 13 -3 6
3 19 12 28 16 15 18 15 18 -7 0 -13 -4 -21 -9 -18 -5 3 -9 3 -9 0 0 -2 -3 -13
-7 -23 -6 -16 -5 -16 10 -4 15 12 17 12 11 -3 -3 -9 -11 -16 -16 -16 -15 0
-68 53 -68 68 0 7 -5 10 -10 7 -6 -4 -24 5 -41 19 -17 14 -35 26 -41 26 -6 0
-3 9 7 20 10 11 21 18 24 15 3 -4 -1 -10 -9 -15z m1185 -39 c2 -11 9 -29 15
-41 6 -11 13 -53 15 -93 2 -40 2 -61 -1 -47 -16 89 -29 141 -45 182 -10 26
-19 50 -19 55 0 13 31 -36 35 -56z m-1450 21 c-3 -3 -11 0 -18 7 -9 10 -8 11
6 5 10 -3 15 -9 12 -12z m1010 0 c-3 -3 -11 0 -18 7 -9 10 -8 11 6 5 10 -3 15
-9 12 -12z m805 -28 c0 -3 -7 -1 -15 6 -8 7 -15 17 -15 22 0 5 7 3 15 -6 8 -8
15 -18 15 -22z m-776 0 c3 -9 5 -30 5 -47 l-1 -32 -7 35 c-4 20 -11 41 -15 48
-4 7 -3 12 2 12 6 0 13 -7 16 -16z m-308 -38 c20 -21 17 -28 -6 -14 -11 7 -20
16 -20 20 0 12 10 9 26 -6z m-1020 -27 c11 -12 14 -23 8 -28 -12 -12 -78 20
-82 40 -4 22 51 13 74 -12z m980 16 c4 -8 13 -15 21 -15 8 0 11 -5 7 -12 -5
-8 -1 -9 12 -4 15 6 17 5 6 -6 -10 -10 -18 -6 -44 20 -18 18 -27 32 -20 32 7
0 15 -7 18 -15z m1080 0 c-3 -10 1 -15 12 -16 12 0 10 -3 -7 -10 -30 -12 -36
-6 -19 20 15 24 23 28 14 6z m-1771 -46 c8 -12 -2 -11 -27 2 -11 6 -22 8 -25
6 -3 -3 12 -15 34 -26 21 -11 31 -20 23 -21 -12 0 -11 -4 4 -15 15 -11 23 -12
33 -3 7 6 16 8 20 4 3 -3 1 -6 -7 -6 -10 0 -10 -3 0 -15 7 -8 9 -15 4 -15 -17
0 -74 24 -74 32 0 4 -7 8 -15 8 -8 0 -15 8 -15 18 0 10 -3 22 -7 26 -4 3 -7
15 -8 25 -1 16 1 16 27 4 15 -8 30 -18 33 -24z m677 -34 c-4 -5 -8 -2 -10 8
-2 9 -8 17 -13 17 -6 0 -7 5 -4 11 5 6 12 4 20 -8 7 -10 10 -22 7 -28z m-746
4 c8 -6 9 -24 3 -55 -10 -54 -3 -73 18 -47 11 14 14 15 10 2 -3 -9 -1 -22 5
-30 8 -11 9 -10 4 4 -4 12 -2 17 6 14 7 -2 13 -18 13 -35 0 -16 3 -28 7 -26
10 6 58 -18 53 -26 -2 -4 8 -13 23 -19 39 -18 122 -81 119 -91 -1 -5 14 -26
34 -47 60 -65 101 -130 84 -136 -8 -4 -21 7 -34 29 -11 19 -24 34 -28 34 -5 0
-28 25 -52 56 -26 34 -49 53 -57 50 -8 -3 -13 -2 -12 2 1 4 -3 17 -10 30 -13
22 -42 31 -42 12 0 -5 4 -10 10 -10 5 0 7 -7 4 -15 -4 -10 11 -32 40 -61 25
-24 46 -49 46 -54 0 -5 8 -11 18 -14 9 -3 26 -19 37 -36 11 -16 28 -30 38 -30
9 0 17 -4 17 -10 0 -5 9 -18 21 -29 16 -15 27 -17 49 -11 16 5 31 6 34 2 3 -3
6 0 6 7 0 6 -11 23 -25 37 -32 32 -32 36 3 20 15 -7 53 -26 85 -41 31 -15 57
-30 57 -34 0 -3 -16 -6 -35 -7 -20 0 -31 4 -28 9 3 6 1 7 -6 3 -8 -5 -9 -12
-2 -20 8 -9 1 -12 -27 -12 -20 0 -61 -3 -89 -8 -44 -6 -53 -5 -53 7 0 8 -9 25
-20 38 -16 20 -19 21 -20 7 0 -27 23 -108 31 -108 10 0 29 -59 33 -106 2 -21
7 -50 10 -64 3 -14 2 -41 -3 -60 -5 -19 -9 -27 -10 -18 -2 31 -93 193 -135
239 -58 65 -84 100 -98 130 -15 34 -137 89 -198 89 -30 0 -117 -94 -148 -157
l-30 -63 -7 33 c-7 32 -7 32 -16 7 -6 -19 -7 -15 -3 15 3 22 7 49 10 60 4 16
3 17 -5 5 -6 -8 -11 -24 -12 -35 -1 -11 -5 0 -10 25 -5 25 -6 59 -2 75 10 45
10 88 0 103 -7 8 -4 12 9 12 16 0 19 8 19 45 0 28 -5 47 -13 50 -7 3 -10 9 -7
15 4 6 10 8 15 5 5 -3 12 0 16 6 3 6 1 15 -6 19 -17 10 -5 40 15 40 8 0 15 -4
15 -9 0 -5 9 -7 20 -4 12 3 20 14 20 27 0 12 9 32 20 44 l21 22 -26 0 c-14 0
-25 5 -25 10 0 6 11 10 25 10 14 0 25 5 25 10 0 19 18 10 23 -11 6 -22 27 -18
27 5 0 8 9 16 21 19 16 4 19 2 14 -11 -4 -11 -3 -13 3 -7 15 16 23 63 12 70
-5 3 -7 0 -4 -8 3 -8 1 -17 -4 -21 -7 -4 -9 27 -2 44 1 3 2 9 1 13 -1 8 34 -8
55 -24z m-78 -7 c5 -30 -12 -28 -27 4 -10 22 -9 25 6 22 10 -2 19 -13 21 -26z
m562 14 c0 -8 6 -17 13 -19 7 -4 6 -6 -4 -6 -9 -1 -19 8 -22 19 -3 11 -1 20 4
20 5 0 9 -6 9 -14z m320 -5 c0 -5 -8 -11 -17 -15 -10 -3 -25 -9 -33 -12 -8 -3
-4 4 10 15 27 22 40 26 40 12z m70 -53 c0 -9 -5 -20 -11 -23 -6 -4 -14 -17
-19 -29 l-9 -21 0 22 c-1 12 4 25 9 28 6 3 10 11 10 17 0 7 -6 6 -15 -2 -12
-10 -15 -9 -16 6 -1 11 -1 22 0 27 2 11 -4 9 -30 -14 -24 -21 -24 -21 -1 -15
13 5 22 3 22 -3 0 -6 -5 -11 -11 -11 -5 0 -7 -5 -3 -11 4 -8 9 -7 15 2 6 10 9
8 9 -8 0 -30 -10 -28 -39 8 l-24 31 28 22 c27 22 30 22 57 7 15 -9 28 -24 28
-33z m-180 -9 c0 -4 -4 -11 -10 -14 -5 -3 -7 0 -4 8 3 8 1 18 -5 22 -6 3 -11
12 -11 18 1 13 30 -21 30 -34z m-66 -11 c-17 -21 -43 -41 -53 -42 -3 -1 -8 11
-12 25 -7 27 2 32 29 16 7 -5 19 -2 28 7 24 24 30 19 8 -6z m-154 -2 c0 -3 -4
-8 -10 -11 -5 -3 -10 -1 -10 4 0 6 5 11 10 11 6 0 10 -2 10 -4z m237 -11 c0
-8 -4 -12 -9 -9 -5 3 -6 10 -3 15 9 13 12 11 12 -6z m-279 -30 c-3 -3 -9 2
-12 12 -6 14 -5 15 5 6 7 -7 10 -15 7 -18z m212 15 c0 -5 -5 -10 -11 -10 -5 0
-7 5 -4 10 3 6 8 10 11 10 2 0 4 -4 4 -10z m139 -20 c-7 -5 -8 -14 -4 -21 5
-8 4 -11 -1 -6 -5 5 -9 19 -9 32 -1 19 2 22 13 13 10 -8 10 -13 1 -18z m-75
-9 c-2 -3 -12 3 -22 13 -16 17 -16 18 5 5 12 -7 20 -15 17 -18z m-61 -8 c-7
-2 -21 -2 -30 0 -10 3 -4 5 12 5 17 0 24 -2 18 -5z m-48 -23 c5 -8 11 -7 21 1
12 10 13 9 8 -5 -3 -9 -10 -16 -15 -16 -13 0 -11 -44 3 -58 18 -18 32 -14 17
5 -13 15 -12 15 8 2 14 -8 18 -16 11 -20 -6 -4 3 -14 22 -24 28 -15 37 -15 54
-5 19 12 20 12 8 -3 -11 -13 -10 -18 12 -32 14 -9 31 -13 37 -9 7 4 9 3 6 -3
-8 -13 57 -76 68 -66 4 5 4 2 0 -6 -6 -10 -4 -13 7 -9 9 4 15 0 15 -8 0 -22
-9 -18 -70 35 -32 26 -81 61 -110 76 -29 15 -66 38 -84 52 -30 22 -33 22 -42
6 -10 -16 -10 -17 -11 -1 0 9 5 20 10 23 13 8 13 55 1 55 -6 0 -17 -10 -25
-22 -9 -12 -16 -17 -16 -10 0 16 32 52 47 52 6 0 15 -5 18 -10z m614 -110 c40
-23 56 -28 66 -20 10 8 15 8 21 -1 4 -8 3 -9 -5 -5 -6 4 -14 0 -17 -9 -6 -14
-9 -14 -23 -2 -26 23 -52 28 -70 15 -14 -11 -14 -11 -3 3 11 15 6 22 -36 53
-27 20 -56 44 -63 53 -8 10 7 1 32 -19 25 -20 69 -50 98 -68z m-187 71 c7 10
8 8 3 -7 -3 -14 3 -30 21 -50 15 -16 28 -38 30 -50 1 -12 5 -33 9 -46 13 -39
-4 -14 -51 78 -40 80 -59 126 -33 80 9 -15 13 -16 21 -5z m-727 -34 c39 -14
57 -33 71 -75 10 -28 10 -36 -4 -50 -16 -16 -18 -16 -37 3 -11 11 -26 33 -33
48 -6 15 -20 30 -29 34 -32 11 -53 39 -40 52 6 6 18 9 27 5 8 -3 29 -11 45
-17z m792 8 c0 -8 -4 -12 -9 -9 -5 3 -6 10 -3 15 9 13 12 11 12 -6z m-560 -17
c-3 -8 -6 -5 -6 6 -1 11 2 17 5 13 3 -3 4 -12 1 -19z m230 -20 c-3 -7 -5 -2
-5 12 0 14 2 19 5 13 2 -7 2 -19 0 -25z m48 -27 c3 -5 2 -12 -3 -15 -5 -3 -9
1 -9 9 0 17 3 19 12 6z m340 -66 c28 -25 53 -45 56 -45 4 0 10 -7 13 -16 6
-14 -9 -5 -72 47 -21 18 -44 -8 -31 -35 10 -20 10 -20 -5 -2 -14 18 -14 21 0
38 16 16 15 19 -7 37 -13 11 -19 20 -14 21 6 0 33 -20 60 -45z m235 0 c84 -42
85 -51 1 -11 -41 20 -79 41 -85 47 -8 8 -6 9 9 1 11 -5 45 -22 75 -37z m-1703
13 c-3 -8 -6 -5 -6 6 -1 11 2 17 5 13 3 -3 4 -12 1 -19z m1153 -136 c0 -5 -7
-17 -15 -28 -14 -18 -14 -17 -4 9 12 27 19 34 19 19z m-906 -17 c-4 -10 0 -15
12 -15 9 0 26 -7 36 -16 14 -14 20 -14 33 -4 13 11 23 10 55 -5 38 -17 90 -72
90 -94 0 -5 11 -19 26 -30 14 -11 25 -23 26 -28 0 -4 4 -7 10 -5 5 1 7 -2 3
-8 -4 -6 -4 -34 0 -62 6 -44 9 -49 20 -35 11 15 13 14 25 -8 7 -14 18 -25 24
-25 6 0 4 -5 -4 -10 -12 -8 -10 -15 16 -42 17 -18 37 -49 45 -68 13 -34 15
-39 18 -59 0 -5 15 -14 31 -21 17 -7 36 -20 43 -30 7 -9 20 -19 29 -23 24 -9
51 -53 50 -85 0 -15 8 -38 18 -52 9 -14 25 -43 36 -65 27 -60 81 -134 135
-187 44 -44 48 -46 52 -25 2 12 5 3 6 -20 1 -42 0 -43 -32 -43 -22 0 -43 9
-65 30 -18 17 -37 30 -42 30 -10 0 -52 84 -48 97 5 13 -44 60 -71 68 -16 5
-21 4 -17 -4 11 -17 0 -13 -68 24 -68 37 -136 48 -136 21 0 -22 -37 -29 -70
-14 -17 7 -30 16 -30 21 0 4 -14 1 -30 -8 -58 -30 -80 10 -80 148 0 41 -6 58
-36 98 -37 51 -54 61 -54 33 0 -10 6 -14 15 -10 8 3 16 2 16 -2 7 -46 7 -65
-1 -52 -5 8 -7 17 -4 21 2 4 -5 5 -16 2 -14 -4 -20 0 -20 10 0 9 -16 42 -35
74 -19 32 -35 68 -35 79 0 12 -7 37 -14 56 -17 39 -11 78 11 78 9 0 14 8 12
23 -5 48 29 75 59 45 6 -6 14 -9 17 -6 3 3 -10 15 -29 26 l-34 20 -18 -24
c-10 -13 -25 -26 -33 -29 -9 -4 -5 5 9 20 l24 25 -25 -4 c-13 -2 -30 -5 -37
-5 -7 -1 -10 -5 -7 -11 3 -5 1 -10 -4 -10 -15 0 -14 27 3 53 18 30 30 81 16
72 -18 -11 -10 21 10 40 11 10 20 13 20 7 0 -6 -6 -12 -12 -15 -7 -2 -10 -8
-6 -11 3 -4 15 1 26 12 11 11 17 23 14 27 -4 3 0 10 8 15 20 13 20 12 14 -5z
m-238 -32 c11 -37 13 -73 4 -73 -12 0 -40 48 -40 68 0 40 25 43 36 5z m1045 4
c-10 -9 -11 -8 -5 6 3 10 9 15 12 12 3 -3 0 -11 -7 -18z m4 -27 c-3 -5 0 -10
7 -10 8 0 6 -5 -5 -11 -10 -6 -30 -8 -45 -6 -25 4 -25 4 5 6 24 1 31 5 27 16
-4 8 -1 15 6 15 6 0 8 -4 5 -10z m575 -30 c11 -7 9 -11 -13 -19 -50 -19 -89
-9 -72 19 8 13 65 13 85 0z m-533 -56 c-3 -4 -2 -15 4 -25 6 -13 6 -19 -1 -19
-5 0 -10 4 -10 9 0 5 -3 16 -6 25 -4 10 -1 16 7 16 7 0 9 -3 6 -6z m659 -30
c18 -14 17 -15 -20 -10 -22 3 -44 10 -50 16 -17 17 48 12 70 -6z m-584 -13
c15 -6 37 -37 63 -86 40 -78 65 -105 97 -105 35 0 86 -80 118 -185 7 -22 19
-53 27 -70 21 -42 26 -82 13 -102 -11 -17 -11 -17 -6 1 12 35 -6 86 -40 118
-23 22 -34 42 -34 60 0 15 -5 30 -11 34 -8 5 -8 9 1 14 19 12 1 32 -21 25 -15
-5 -19 -1 -19 14 0 12 6 21 13 21 8 0 8 3 1 8 -6 4 -13 15 -17 25 -8 22 -47
37 -97 37 -34 0 -42 4 -55 30 -14 28 -13 34 8 31 11 -2 8 14 -8 35 -8 11 -15
14 -15 7 0 -22 -16 -14 -29 13 -14 31 -5 46 13 22 7 -10 16 -15 19 -12 12 12
-14 44 -46 58 -35 16 -13 22 25 7z m-588 -63 c-4 -6 -10 -5 -15 3 -14 22 -10
33 6 19 8 -7 12 -17 9 -22z m440 16 c3 -9 6 -23 6 -32 0 -13 -3 -12 -15 4 -16
21 -19 44 -6 44 5 0 12 -7 15 -16z m56 -31 c0 -7 -4 -13 -8 -13 -12 0 -32 46
-24 55 8 8 32 -24 32 -42z m-910 16 c-7 -11 -14 -18 -17 -15 -3 3 0 12 7 21
18 21 23 19 10 -6z m944 -29 c-7 -6 -24 22 -23 40 0 9 6 5 14 -10 7 -14 11
-27 9 -30z m26 41 c0 -5 3 -18 6 -28 5 -16 4 -16 -10 1 -18 23 -20 36 -6 36 6
0 10 -4 10 -9z m-78 -96 c12 -26 4 -46 -11 -29 -5 5 -12 19 -16 32 -9 31 12
29 27 -3z m51 -15 c3 -13 0 -20 -9 -20 -8 0 -14 3 -15 8 0 4 -2 18 -5 31 -3
19 -2 22 10 12 8 -6 16 -21 19 -31z m32 9 c10 -30 0 -33 -13 -4 -6 14 -7 25
-2 25 5 0 12 -9 15 -21z m46 -7 c6 -16 5 -22 -5 -22 -13 0 -26 21 -26 42 0 17
23 3 31 -20z m19 -112 c9 -16 8 -20 -5 -20 -8 0 -15 9 -15 20 0 11 2 20 5 20
2 0 9 -9 15 -20z m128 -21 c-15 -10 -32 16 -22 33 5 7 11 5 21 -7 10 -15 10
-20 1 -26z m-169 5 c3 -16 1 -17 -13 -5 -19 16 -21 34 -3 29 6 -3 14 -13 16
-24z m85 11 c3 -9 0 -15 -9 -15 -8 0 -15 7 -15 15 0 8 4 15 9 15 5 0 11 -7 15
-15z m45 -11 c3 -16 1 -17 -13 -5 -19 16 -21 34 -3 29 6 -3 14 -13 16 -24z
m-99 -46 c0 -7 7 -25 14 -40 14 -26 13 -28 -4 -28 -11 0 -22 12 -29 31 -14 42
-14 49 4 49 8 0 15 -6 15 -12z m50 -23 c18 -54 8 -60 -17 -10 -16 34 -18 45
-8 45 7 0 19 -16 25 -35z m40 4 c9 -21 10 -33 2 -41 -10 -10 -11 -7 -28 55 -9
29 13 19 26 -14z m38 18 c6 -6 13 -24 17 -40 5 -20 4 -27 -8 -27 -9 0 -19 16
-25 40 -10 40 -4 51 16 27z m50 -20 c15 -41 15 -50 1 -45 -17 6 -40 78 -25 78
7 0 17 -15 24 -33z m-338 -114 c0 -5 -4 -14 -9 -21 -7 -11 -9 -11 -14 1 -3 8
-3 18 0 21 9 8 23 7 23 -1z m741 -24 l22 -31 -24 7 c-38 11 -66 55 -35 55 8 0
25 -14 37 -31z m-441 -64 c7 -14 10 -28 7 -32 -4 -3 -7 0 -7 7 0 7 -7 22 -17
32 -9 10 -12 18 -6 18 5 0 16 -11 23 -25z m-182 -57 c17 -27 56 -121 109 -258
3 -8 -6 0 -20 19 -15 19 -34 54 -43 77 -16 41 -36 60 -54 49 -9 -6 -23 37 -36
108 -8 48 16 51 44 5z m287 -55 c37 -38 72 -80 77 -95 12 -34 -3 -64 -37 -72
-16 -4 -25 -13 -25 -26 0 -11 -4 -20 -8 -20 -16 0 -5 47 15 67 12 12 23 19 26
17 2 -2 9 2 16 9 9 11 7 20 -9 38 -20 22 -20 23 -11 2 14 -27 14 -33 1 -33 -5
0 -10 8 -10 18 0 14 -2 15 -9 2 -6 -8 -7 -19 -3 -25 3 -5 -2 -4 -12 4 -17 14
-56 91 -56 110 0 6 -4 11 -9 11 -5 0 -14 14 -20 30 -5 17 -6 30 -2 30 4 0 38
-30 76 -67z m-66 -97 c-9 -8 -10 -7 -5 7 3 10 7 26 7 35 1 9 4 6 6 -7 3 -13
-1 -28 -8 -35z m-260 -21 c-1 -11 -1 -29 0 -40 1 -17 3 -18 11 -5 5 8 10 11
10 5 0 -5 3 -20 6 -32 5 -20 2 -23 -20 -23 -26 0 -26 0 -25 83 0 64 2 77 10
57 5 -13 9 -33 8 -45z m209 21 c3 -12 -1 -17 -10 -14 -7 3 -15 13 -16 22 -3
12 1 17 10 14 7 -3 15 -13 16 -22z"/>
<path d="M1160 1706 c0 -9 5 -16 10 -16 6 0 10 4 10 9 0 6 -4 13 -10 16 -5 3
-10 -1 -10 -9z"/>
<path d="M760 1519 c0 -5 5 -7 10 -4 6 3 10 8 10 11 0 2 -4 4 -10 4 -5 0 -10
-5 -10 -11z"/>
<path d="M827 1318 c2 -5 10 -8 18 -8 8 0 16 3 18 8 3 4 -5 7 -18 7 -13 0 -21
-3 -18 -7z"/>
<path d="M541 1022 c-13 -25 -14 -32 -2 -32 9 0 23 41 16 48 -2 2 -8 -5 -14
-16z"/>
<path d="M1365 1490 c-3 -5 -1 -10 4 -10 6 0 11 5 11 10 0 6 -2 10 -4 10 -3 0
-8 -4 -11 -10z"/>
<path d="M727 939 c7 -7 15 -10 18 -7 3 3 -2 9 -12 12 -14 6 -15 5 -6 -5z"/>
<path d="M815 856 c17 -14 34 -26 39 -26 11 0 11 0 -34 29 l-35 23 30 -26z"/>
<path d="M1030 775 c0 -15 18 -40 24 -34 3 3 -1 14 -9 25 -8 10 -14 15 -15 9z"/>
<path d="M390 2810 c12 -23 25 -27 17 -6 -3 8 -1 17 6 20 7 2 2 5 -11 5 -20 1
-21 -2 -12 -19z"/>
<path d="M920 2822 c0 -5 11 -19 25 -32 31 -29 32 -42 3 -40 -42 4 -54 -3 -18
-9 26 -4 36 -12 38 -28 3 -17 -2 -23 -17 -23 -11 0 -23 -4 -26 -10 -3 -5 0
-10 8 -10 7 0 19 -11 25 -25 16 -34 15 -35 -9 -35 -20 0 -21 -3 -14 -62 4 -35
7 -75 6 -89 0 -14 5 -33 12 -43 13 -17 14 -17 20 -2 4 9 3 14 -2 11 -5 -3 -12
-1 -16 5 -3 5 -1 10 4 10 6 0 11 7 11 15 0 9 9 15 21 15 15 0 19 5 15 15 -3 8
-1 15 4 15 5 0 7 7 4 15 -5 11 1 15 24 15 17 0 33 -6 36 -12 3 -7 4 4 1 25 -6
36 -5 37 25 37 19 0 30 5 30 14 0 7 7 19 15 26 19 16 20 70 1 70 -19 0 -25 52
-11 87 18 45 1 53 -114 53 -56 0 -101 -4 -101 -8z m220 -170 c0 -4 -6 -20 -12
-35 -10 -19 -20 -26 -38 -26 -24 2 -24 2 -2 6 20 4 21 7 10 20 -10 13 -9 18 7
29 21 16 35 18 35 6z m-165 -162 c3 -5 1 -10 -4 -10 -6 0 -11 5 -11 10 0 6 2
10 4 10 3 0 8 -4 11 -10z"/>
<path d="M1283 2823 c14 -4 17 -11 13 -26 -3 -12 -6 -26 -6 -30 0 -5 -5 -5
-11 -1 -7 4 -10 1 -7 -6 2 -8 -4 -22 -15 -33 -11 -11 -15 -22 -10 -26 6 -3 13
-13 16 -21 4 -12 6 -11 6 3 1 14 5 16 20 7 29 -15 31 -13 25 18 -4 21 1 34 22
55 30 31 73 45 83 29 4 -6 23 -9 44 -7 32 3 38 0 43 -21 3 -13 11 -21 16 -18
6 4 13 2 17 -4 7 -12 61 -4 61 9 0 5 -6 6 -14 3 -11 -4 -13 0 -9 16 3 12 -2
28 -12 40 -17 18 -31 20 -159 19 -78 -1 -133 -3 -123 -6z m54 -35 c-3 -8 -6
-5 -6 6 -1 11 2 17 5 13 3 -3 4 -12 1 -19z"/>
<path d="M1600 2821 c0 -6 5 -13 10 -16 6 -3 10 1 10 9 0 9 -4 16 -10 16 -5 0
-10 -4 -10 -9z"/>
<path d="M2110 2826 c0 -2 7 -7 16 -10 8 -3 12 -2 9 4 -6 10 -25 14 -25 6z"/>
<path d="M2551 2813 c7 -10 15 -20 16 -22 2 -2 3 3 3 11 0 9 -7 19 -16 22 -15
6 -15 4 -3 -11z"/>
<path d="M159 2783 c-1 -5 -1 -11 0 -15 0 -5 -6 -8 -15 -8 -8 0 -12 -5 -9 -11
7 -11 45 16 45 33 0 10 -20 11 -21 1z"/>
<path d="M2086 2777 c3 -10 9 -15 12 -12 3 3 0 11 -7 18 -10 9 -11 8 -5 -6z"/>
<path d="M2113 2760 c-1 -11 3 -20 8 -20 6 0 7 5 4 10 -3 6 2 10 12 10 15 0
16 2 3 10 -22 14 -26 12 -27 -10z"/>
<path d="M2490 2736 c0 -8 4 -17 9 -20 5 -4 7 3 4 14 -6 23 -13 26 -13 6z"/>
<path d="M573 2700 c5 -30 11 -31 24 -4 10 21 9 24 -8 24 -13 0 -18 -6 -16
-20z"/>
<path d="M2400 2680 c0 -5 5 -10 11 -10 5 0 7 5 4 10 -3 6 -8 10 -11 10 -2 0
-4 -4 -4 -10z"/>
<path d="M2746 2682 c-9 -14 19 -52 38 -52 6 0 4 6 -5 13 -9 7 -18 21 -21 32
-2 15 -6 17 -12 7z"/>
<path d="M552 2654 c-7 -8 -8 -14 -3 -14 10 0 25 19 20 25 -2 1 -10 -3 -17
-11z"/>
<path d="M271 2634 c0 -11 3 -14 6 -6 3 7 2 16 -1 19 -3 4 -6 -2 -5 -13z"/>
<path d="M340 2639 c0 -5 5 -7 10 -4 6 3 10 8 10 11 0 2 -4 4 -10 4 -5 0 -10
-5 -10 -11z"/>
<path d="M586 2641 c-4 -5 -2 -12 3 -15 5 -4 12 -2 15 3 4 5 2 12 -3 15 -5 4
-12 2 -15 -3z"/>
<path d="M2290 2625 c0 -16 16 -20 24 -6 3 5 -1 11 -9 15 -9 3 -15 0 -15 -9z"/>
<path d="M120 2620 c0 -5 5 -10 10 -10 6 0 10 5 10 10 0 6 -4 10 -10 10 -5 0
-10 -4 -10 -10z"/>
<path d="M207 2611 c-4 -17 -3 -21 5 -13 5 5 8 16 6 23 -3 8 -7 3 -11 -10z"/>
<path d="M1600 2627 c0 -4 8 -15 18 -25 17 -17 21 -17 38 -4 19 14 19 15 0 8
-12 -4 -26 0 -37 10 -11 10 -19 14 -19 11z"/>
<path d="M510 2610 c0 -5 5 -10 10 -10 6 0 10 5 10 10 0 6 -4 10 -10 10 -5 0
-10 -4 -10 -10z"/>
<path d="M260 2603 c0 -15 18 -35 27 -32 5 2 1 12 -9 22 -10 9 -18 14 -18 10z"/>
<path d="M222 2587 c-6 -7 -7 -19 -3 -26 6 -9 10 -5 13 13 6 30 5 31 -10 13z"/>
<path d="M2420 2590 c8 -5 20 -10 25 -10 6 0 3 5 -5 10 -8 5 -19 10 -25 10 -5
0 -3 -5 5 -10z"/>
<path d="M2549 2582 c15 -29 39 -39 54 -22 10 10 8 12 -5 7 -11 -4 -26 2 -39
16 l-21 22 11 -23z"/>
<path d="M2622 2580 c0 -14 2 -19 5 -12 2 6 2 18 0 25 -3 6 -5 1 -5 -13z"/>
<path d="M1340 2581 c0 -5 7 -11 15 -15 8 -3 15 -1 15 3 0 5 -7 11 -15 15 -8
3 -15 1 -15 -3z"/>
<path d="M2810 2572 c0 -7 -7 -9 -17 -5 -15 5 -16 3 -5 -8 9 -10 15 -10 24 -1
6 6 9 15 5 19 -4 3 -7 1 -7 -5z"/>
<path d="M211 2524 c0 -11 3 -14 6 -6 3 7 2 16 -1 19 -3 4 -6 -2 -5 -13z"/>
<path d="M224 2465 c-3 -8 -4 -20 -2 -27 3 -7 7 -1 10 15 6 29 1 36 -8 12z"/>
<path d="M1515 2470 c4 -6 11 -8 16 -5 5 4 9 1 9 -4 0 -6 4 -11 10 -11 5 0 7
7 4 15 -4 8 -15 15 -26 15 -10 0 -16 -5 -13 -10z"/>
<path d="M1578 2473 c12 -2 32 -2 45 0 12 2 2 4 -23 4 -25 0 -35 -2 -22 -4z"/>
<path d="M2531 2464 c0 -11 3 -14 6 -6 3 7 2 16 -1 19 -3 4 -6 -2 -5 -13z"/>
<path d="M195 2443 c2 -10 4 -21 4 -25 1 -5 6 -8 12 -8 8 0 7 6 -2 17 -8 9
-12 18 -11 20 2 3 1 7 -1 10 -3 3 -4 -3 -2 -14z"/>
<path d="M2233 2425 c0 -8 4 -12 9 -9 5 3 6 10 3 15 -9 13 -12 11 -12 -6z"/>
<path d="M1000 2400 c0 -5 5 -10 11 -10 5 0 7 5 4 10 -3 6 -8 10 -11 10 -2 0
-4 -4 -4 -10z"/>
<path d="M2571 2394 c0 -11 3 -14 6 -6 3 7 2 16 -1 19 -3 4 -6 -2 -5 -13z"/>
<path d="M950 2346 c0 -8 5 -18 10 -21 6 -3 10 3 10 14 0 12 -4 21 -10 21 -5
0 -10 -6 -10 -14z"/>
<path d="M2255 2350 c4 -6 1 -19 -7 -28 -12 -15 -11 -16 5 -3 19 15 23 41 6
41 -5 0 -7 -5 -4 -10z"/>
<path d="M990 2324 c0 -8 5 -12 10 -9 6 4 8 11 5 16 -9 14 -15 11 -15 -7z"/>
<path d="M2259 2256 c-2 -3 -28 -6 -56 -7 -29 -1 -50 -6 -47 -10 2 -5 11 -6
19 -2 11 3 15 -2 15 -17 0 -16 -4 -20 -16 -16 -8 3 -12 2 -9 -3 5 -8 21 -9 68
-2 5 0 6 5 2 10 -3 5 -1 12 4 16 9 5 9 -3 -1 -45 -1 -8 2 -14 9 -13 6 1 14 -5
17 -13 4 -12 2 -15 -9 -10 -22 8 -18 -2 6 -15 12 -6 19 -7 16 -1 -4 5 0 18 8
28 20 27 18 41 -6 47 -17 5 -20 11 -17 31 5 26 5 29 -3 22z m-39 -36 c0 -11
-4 -20 -8 -20 -4 0 -8 9 -9 20 -1 11 2 20 8 20 5 0 9 -9 9 -20z"/>
<path d="M2230 2106 c0 -2 7 -7 16 -10 8 -3 12 -2 9 4 -6 10 -25 14 -25 6z"/>
<path d="M2280 2089 c0 -5 5 -7 10 -4 6 3 10 8 10 11 0 2 -4 4 -10 4 -5 0 -10
-5 -10 -11z"/>
<path d="M1884 2028 c1 -13 17 -45 36 -72 19 -26 35 -52 35 -58 0 -15 49 -61
53 -50 5 16 -71 150 -105 184 -20 19 -20 19 -19 -4z"/>
<path d="M1716 2027 c3 -10 9 -15 12 -12 3 3 0 11 -7 18 -10 9 -11 8 -5 -6z"/>
<path d="M2212 1941 c-10 -6 -10 -10 2 -20 12 -10 15 -9 13 8 -1 12 -1 21 -2
21 0 0 -6 -4 -13 -9z"/>
<path d="M2065 1880 c9 -33 33 -70 45 -70 20 0 9 29 -21 62 -29 31 -31 31 -24
8z"/>
<path d="M1880 1872 c1 -7 77 -64 95 -71 6 -2 -1 8 -14 23 -25 27 -81 60 -81
48z"/>
<path d="M2317 1823 c-10 -10 -8 -25 2 -19 5 4 11 0 14 -6 2 -7 7 -11 10 -8 3
3 0 13 -7 22 -7 10 -16 15 -19 11z"/>
<path d="M2095 1751 c4 -67 11 -73 19 -20 5 31 3 46 -8 57 -13 14 -15 9 -11
-37z"/>
</g>
</svg>
